v -19.0548 -21.9720 -48.1138
v -15.5022 -12.4138 -40.3864
v -17.6740 -15.1127 -19.9814
v -14.6025 -9.2387 -47.1177
v -15.3463 -15.2582 -40.8106
v -16.8306 -16.9878 -23.1724
v -17.1814 -14.2709 -24.0964
v -17.2758 -13.2204 -39.1152
v -15.4346 -8.9243 -15.1937
v -16.6236 -14.9683 -21.9796
v -15.5467 -14.4111 -31.2322
v -14.5778 -20.2615 -48.7324
v -15.6798 -17.1346 -38.9921
v -13.9132 -10.0327 -13.3485
v -16.3255 -11.2700 -21.9431
v -15.1208 -11.7867 -23.8727
v -15.7807 -9.2333 -39.3067
v -14.7134 -17.6808 -18.5154
v -14.8250 -16.9494 -29.7274
v -15.9803 -1.0367 -6.9589
v -14.7319 -7.6644 -18.1965
v -14.0267 -11.4001 -30.8714
v -14.5894 -10.1644 -41.4779
v -14.5806 -18.2075 -44.4740
v -14.2983 3.4210 -11.9033
v -11.1415 -9.2657 -47.2731
v -14.6888 -18.8649 -23.4241
v -14.3731 -18.0026 -21.6345
v -15.3245 5.6884 -9.9379
v -13.1168 6.6210 -16.0884
v -13.2968 -7.2731 -19.4384
v -13.0759 1.6525 -14.9146
v -13.8248 2.6325 -16.0512
v -13.7819 3.4055 -5.7612
v -13.3473 2.7825 -2.8150
v -11.6319 -8.4157 -39.8750
v -12.6537 -6.4456 -6.6295
v -13.7747 -23.4435 -46.7110
v -11.1099 -19.3454 -21.6502
v -12.6713 -20.5344 -44.9027
v -12.0482 -10.3995 -23.9199
v -11.5141 -18.4757 -39.2767
v -11.9241 -9.4570 -41.7694
v -13.7490 -23.7032 -48.8013
v -12.6729 -1.9453 -1.2939
v -11.8438 -17.6859 -31.1782
v -12.1617 -2.5061 -3.1676
v -10.9926 -12.7004 -14.5077
v -12.3285 7.0178 -4.6345
v -10.3087 -18.5379 -18.3882
v -11.6687 -10.7103 -30.4304
v -12.2648 -25.1975 -48.3935
v -12.1613 -16.4528 -41.4133
v -12.1718 -23.7511 -46.3494
v -12.5687 8.4557 -4.3307
v -11.0714 -9.0502 -10.3818
v -10.7714 10.7627 -12.3564
v -10.5523 1.9315 -18.6578
v -10.2672 -7.7122 -19.6800
v -10.1784 -4.5249 -1.5259
v -10.7820 0.4402 -15.7750
v -10.4801 13.9286 -13.1699
v -8.5581 -0.7563 -15.0779
v -7.5951 2.1139 0.9271
v -11.9222 -22.1204 15.6979
v -10.7284 -22.1563 -47.8450
v -11.0543 -18.1142 14.5050
v -11.7398 -21.0816 -48.9867
v -10.8825 -21.7302 10.6929
v -11.5007 20.5088 -23.2756
v -11.6793 -31.9112 9.2157
v -11.5367 22.8642 -26.2502
v -11.3699 -12.1598 4.5749
v -11.2199 -17.5580 -43.6142
v -10.5622 21.6276 -24.7722
v -11.3646 -8.5676 3.3245
v -11.2200 -32.4271 7.2156
v -11.5848 25.1137 -29.3728
v -10.1444 -16.8069 -31.1591
v -10.1162 -8.1979 12.2111
v -10.2854 -5.1206 9.2068
v -8.7088 -11.8124 -23.8347
v -9.3640 -33.0605 5.9464
v -10.7724 -36.3347 9.1054
v -10.4559 -28.2741 11.5271
v -9.1428 -14.3345 -30.5933
v -10.2635 23.6492 -28.0101
v -10.7617 16.6849 -17.0104
v -11.1449 -14.4275 9.4252
v -10.5638 19.5568 -21.2757
v -10.9818 27.1310 -32.2200
v -10.7124 -14.3590 4.8811
v -9.3852 -26.7400 17.4272
v -10.0627 -19.5929 17.4474
v -10.4028 -22.5949 13.7726
v -9.5739 -15.8703 -41.4274
v -10.3284 -33.0140 10.9760
v -9.5081 -5.2606 -4.6348
v -10.1342 -24.6995 15.4156
v -10.5685 -9.9208 5.1436
v -9.3848 -11.1226 14.5559
v -10.1476 -27.8363 8.6328
v -9.6925 -14.2127 16.6149
v -10.4403 -40.3415 7.4379
v -8.8057 -17.0059 -48.7209
v -10.2743 26.0852 -30.7017
v -10.1156 17.8058 -19.0160
v -10.8895 -18.2534 7.0559
v -9.4362 -6.5213 3.5467
v -10.3450 -14.9316 14.1571
v -8.9869 11.9445 -13.9468
v -9.5129 -18.4191 12.4833
v -8.1781 25.8703 -24.5782
v -8.5909 -42.7932 12.7755
v -9.9730 -15.8977 9.7844
v -7.8979 25.9563 -26.6172
v -7.3757 -12.6927 -44.1327
v -9.6791 -2.1567 6.8183
v -10.4636 -4.2736 1.7270
v -10.4526 29.5359 -34.5686
v -7.0325 15.2417 -30.5562
v -8.8554 -37.7583 10.9004
v -7.9390 14.1605 -8.7933
v -7.4608 -23.7075 -48.1598
v -8.1633 24.0643 -21.6781
v -9.2511 -11.5898 -41.6014
v -8.2894 -29.7018 13.0185
v -8.0998 -18.9015 -0.5162
v -8.4588 -10.0165 12.7287
v -6.8249 13.5145 -28.0955
v -7.6190 22.1325 -19.7615
v -9.9993 -38.1088 43.3570
v -8.7250 17.4706 -15.3724
v -9.9380 -40.5900 40.1362
v -8.8937 3.2634 2.1469
v -8.4717 -6.7452 10.6673
v -6.7080 6.4876 -18.7748
v -9.4278 -45.4862 39.9782
v -9.8321 -43.1137 38.6713
v -9.8736 28.2711 -33.4233
v -8.5107 -11.2486 -2.3040
v -8.1201 -20.9497 1.7446
v -6.7776 -28.1104 14.5602
v -8.2679 -11.2361 -39.9966
v -8.5489 -12.9858 14.7016
v -8.7174 -17.3155 -39.7904
v -9.6639 31.1427 -36.7569
v -8.8419 -45.1849 8.6779
v -9.2428 -39.2198 36.7577
v -9.0335 -10.9057 -14.5705
v -7.4723 8.4887 -0.1154
v -8.1256 27.5080 -29.2605
v -8.2378 -8.1483 -16.8344
v -7.4176 -15.0125 -22.4466
v -9.4624 -36.3554 44.0173
v -7.6784 -26.3696 7.9061
v -7.5315 29.3826 -30.5759
v -8.3907 -23.1170 8.3112
v -5.2751 12.2714 -26.3906
v -8.6409 -8.4984 -0.1704
v -7.3975 -45.3589 9.9595
v -8.0183 -14.4317 -2.2495
v -6.1965 -15.7067 -48.1286
v -7.5873 -17.0333 18.7093
v -8.0215 -21.0491 19.5819
v -8.3090 -49.2852 36.9581
v -8.2807 -12.6708 -1.3521
v -7.2228 30.1174 -32.6380
v -6.7237 11.6814 -24.8823
v -9.1187 -39.7377 47.1156
v -7.9628 -33.8076 11.1930
v -8.0346 -17.2753 -24.0670
v -5.6926 14.9560 -28.7959
v -7.1736 -34.1811 37.9868
v -7.9664 -46.0906 33.2970
v -8.0373 -23.0626 1.5953
v -8.8494 33.1021 -38.9419
v -6.3787 19.5314 -34.0518
v -8.0004 27.7247 -27.7202
v -8.6660 -4.1151 7.8614
v -8.2811 -45.9139 42.0242
v -6.3056 35.2490 -36.9015
v -6.8531 -5.3220 -0.0015
v -8.6156 -44.1946 46.1266
v -7.3265 12.6651 -5.2471
v -6.6568 -3.9119 -0.7594
v -5.4775 10.8160 -23.4618
v -8.2113 -41.3509 45.5166
v -6.2375 -24.4854 20.7246
v -6.4167 -44.5228 4.3972
v -6.3378 -0.3068 5.7911
v -5.8102 3.6286 -16.4482
v -7.1234 22.5397 -38.5437
v -6.1966 24.4002 -39.2332
v -7.8558 -17.7072 -46.9625
v -6.2704 25.0691 -41.1969
v -7.2428 17.7282 -33.3693
v -8.1110 -42.2306 37.4936
v -8.0330 -25.1489 4.6302
v -7.0601 -44.0667 7.0678
v -2.7639 -1.1769 12.3040
v -8.0826 -54.9055 35.2233
v -5.7219 -54.7218 33.2388
v -6.6328 -29.1919 8.1804
v -6.8818 -4.4534 -7.8717
v -7.0185 18.8440 -14.6771
v -5.8464 -14.8789 18.2035
v -3.8170 0.9318 11.8233
v -7.8371 23.9351 -23.3959
v -6.1624 15.6551 -8.0518
v -4.9688 -39.7366 43.7955
v -8.0783 37.7156 -41.0394
v -6.6147 4.6549 3.6539
v -6.6993 -47.2996 40.2424
v -6.4502 -33.4104 7.8860
v -6.7635 17.5659 -8.9715
v -7.1850 18.8355 -13.0012
v -8.0531 15.5662 -12.0098
v -6.4967 -23.7792 1.8811
v -6.5100 -2.5471 -12.5906
v -6.3008 28.5331 -43.0363
v -2.8406 -1.6384 14.7436
v -4.5570 -43.1649 41.9947
v -6.4115 17.1008 -11.7389
v -6.2023 -40.9951 40.5930
v -7.4060 20.4292 -15.7396
v -5.0855 -35.7879 34.8355
v -4.2072 -3.9624 -3.5361
v -6.5629 -48.2331 43.2268
v -6.1310 -54.1070 30.5539
v -6.2261 -12.4213 -2.9447
v -2.9262 -4.3589 14.9126
v -5.9834 -28.2615 18.2573
v -5.9416 11.6277 -1.7636
v -6.8127 -38.6133 6.5903
v -5.7484 -25.9064 1.8974
v -6.5647 16.0373 -5.7365
v -7.0382 16.9708 -31.5110
v -6.8938 21.9279 -37.0063
v -5.0743 -34.2727 46.3184
v -6.8202 39.4315 -42.7217
v -6.0359 14.1299 -2.5515
v -6.0642 2.4218 3.9921
v -2.9427 -4.7614 16.8790
v -6.2390 12.1118 0.7884
v -5.8933 9.7863 3.5575
v -3.6734 -43.6805 48.6098
v -6.0815 -25.6319 5.7362
v -5.4447 -18.5562 19.3216
v -5.0330 0.3106 -13.6966
v -4.7170 -37.9000 48.5731
v -6.1507 -31.5986 10.6373
v -5.1518 30.6422 -44.0069
v -5.8944 -54.8516 37.0163
v -5.7716 -55.0790 39.0058
v -5.7095 -57.8843 35.0431
v -5.3777 10.0806 1.6051
v -5.5400 6.8865 6.4059
v -4.4121 -21.8683 -1.1130
v -6.9548 19.7490 -36.2939
v -4.8531 39.1706 -39.6932
v -4.9178 -42.7108 44.6207
v -5.4648 24.5618 -27.4064
v -5.6799 6.8187 3.3919
v -5.8031 -43.6971 6.3263
v -5.6197 -52.2638 40.9122
v -5.7550 21.9977 -36.6877
v -5.5066 22.5380 -38.6065
v -5.6823 16.9818 -31.0676
v -4.4862 23.8781 -25.9222
v -5.2950 19.7822 -36.0394
v -4.9144 -26.0243 8.9967
v -1.9112 -44.3055 33.8335
v -5.7037 27.4052 -41.4474
v -3.6367 -31.4116 41.8989
v -4.6270 35.3992 -46.5010
v -2.2702 -14.8448 22.5919
v -4.1838 27.7796 -31.5319
v -3.7562 -1.9002 -10.2750
v -0.4693 -16.5296 -3.9895
v -3.0259 -55.5283 29.8324
v -2.4382 -5.7933 -0.7643
v -5.0833 25.3688 -40.4833
v -4.7246 -31.9705 38.0650
v -5.2120 13.3820 -5.0336
v -3.4886 1.6078 10.0326
v -3.8819 19.9154 -19.3135
v -4.5898 3.5103 5.8866
v -4.9626 28.3369 -32.9430
v -4.2258 -26.6043 11.9894
v -4.7020 25.5923 -28.7014
v -5.1306 22.1594 -24.5557
v -4.3514 30.4295 -34.6336
v -5.6312 -30.2268 33.7826
v -5.3093 17.4680 -33.0805
v -4.6155 28.6482 -42.9614
v -5.5089 -28.5482 30.7831
v -4.9357 -29.1259 21.3556
v -5.2706 15.1487 -30.4634
v -2.5479 -27.8677 16.5479
v -4.7979 14.9143 -8.5116
v -5.4398 26.2788 -30.2699
v -3.6777 33.6573 -37.9608
v -4.4790 -22.1925 20.5873
v -5.1808 -25.2313 25.3119
v -4.0305 21.8419 -22.8577
v -5.2242 -31.1819 36.7805
v -4.7047 20.3543 -21.6536
v -4.8630 -34.0037 30.3844
v -3.2247 16.0954 -13.0893
v -4.3691 -31.1793 35.2287
v -4.7454 -34.7333 32.5120
v -2.5237 -56.0799 33.8587
v -4.7518 -27.2736 28.5952
v -3.4379 6.9955 3.0402
v -3.2458 -22.2524 23.6122
v 1.4796 -2.1652 -5.1883
v -2.6442 -11.4889 21.2440
v -4.3256 -31.6156 27.1246
v -4.3962 -30.2618 24.0209
v -4.5671 -24.7254 23.6427
v -2.7281 -58.1135 36.1429
v -3.9214 3.9461 9.8404
v -3.8838 -32.7085 29.6244
v -4.4045 -29.5399 32.2898
v -3.9921 7.3198 -18.6181
v -2.1374 -25.9603 1.6163
v -1.1676 -21.9446 -1.4558
v -4.1227 -26.4972 26.6833
v -3.4158 10.3911 -1.3515
v -2.3746 -10.4095 19.2461
v -3.8215 12.1407 -3.7736
v -2.4589 37.3045 -40.3181
v -3.5005 12.7825 -15.6909
v -1.7180 -18.3801 24.1044
v -1.7840 -16.9926 22.1272
v -1.1979 -38.2334 34.1189
v -2.8713 -7.9451 18.5807
v -0.4424 46.3325 -48.8558
v -2.2302 3.1650 -16.0583
v -1.4880 -23.1477 26.8468
v -2.3340 -49.8766 42.8462
v -2.6602 3.5864 5.8496
v -2.1774 -13.5603 21.1706
v -1.5863 -20.0622 24.2308
v -0.9409 -37.4465 32.6215
v -0.4772 -29.8114 20.7014
v -1.6228 4.5229 -18.7777
v -3.5346 -55.4714 39.2620
v -0.9073 -35.5655 30.2655
v -1.2906 -27.2308 32.6533
v -2.8140 -24.9441 4.1424
v -1.1139 -27.9347 36.2071
v -1.2622 -29.4529 38.9326
v -1.8184 -24.9640 12.3614
v -2.0886 -31.1804 39.6763
v -2.3104 38.3665 -46.9778
v -0.1226 -30.9813 21.6328
v -0.3782 -29.1029 17.1510
v -2.4665 -23.5539 24.2411
v -0.5941 0.3105 -14.1549
v -0.8924 -32.9733 25.9222
v -0.7830 16.0058 -11.9554
v -1.0343 46.3494 -42.1639
v -1.2418 -35.7350 31.9644
v -0.3318 -34.9476 46.8163
v -0.5498 -54.4885 37.2942
v -2.5207 -21.3383 25.4838
v -1.2811 -25.0851 29.7685
v 0.1497 -24.7952 6.0192
v -1.3269 -29.4097 37.1043
v 1.1129 -43.5542 48.7212
v 1.6305 11.0446 -3.1943
v -0.4266 -31.0914 23.4121
v -1.0920 -25.1352 27.7958
v -1.5234 -49.4344 41.0915
v -0.3452 -55.6835 31.5800
v -0.9695 50.2732 -43.7207
v -2.1799 -42.5947 43.3908
v 0.3439 -26.4279 15.5066
v 1.0285 -27.5275 2.2786
v 0.0848 -2.2862 -1.0347
v 0.4896 44.9628 -43.4162
v -0.6756 3.1220 4.4809
v -1.6503 -54.8103 39.3355
v 1.5825 4.0989 -15.6088
v -1.0536 -34.0160 29.6126
v -0.6003 -11.0487 -1.8198
v -1.0201 -41.0116 42.3275
v 0.3145 -32.1762 39.4498
v -0.0213 13.5554 -11.5413
v 3.5382 -8.1541 14.2263
v 3.1421 -0.4718 7.7380
v 2.8734 -2.4139 8.7349
v 3.3695 54.1593 -46.5313
v -0.6201 -14.1069 20.2614
v -0.8393 -21.3849 25.7364
v -0.0729 -2.2924 -8.2696
v 0.0293 -40.7997 44.5459
v 1.5259 -47.2264 38.7723
v 0.4899 -0.2203 5.7919
v 2.0552 -35.4211 33.4911
v 2.2610 -21.4539 -1.1522
v 1.9168 -49.0873 40.6133
v 0.0789 2.3549 1.0851
v 1.9332 -32.9545 30.7404
v 0.3313 -22.2598 24.4094
v 1.0563 -37.2100 35.1401
v 2.6536 7.1506 -17.3045
v 0.9378 -44.4704 44.4017
v 0.4911 5.4471 3.2279
v 2.9402 -32.4308 29.2501
v 0.6840 -1.6282 2.3437
v 1.9616 -42.6075 46.4072
v 0.6255 -4.4498 -0.0159
v 1.5619 -47.1380 45.2403
v 2.3559 9.7473 -4.5304
v 2.8157 -39.3329 47.2288
v 2.2376 -28.0786 29.3533
v 2.6353 -26.7393 16.7396
v 4.2681 -3.4593 9.8662
v 0.8920 -28.2009 18.6687
v 2.3965 -41.8667 36.3521
v 4.4682 -5.0638 -14.5660
v 2.8342 -2.9498 -16.3536
v 6.1845 -22.8694 8.6480
v 1.5044 -31.7001 35.7444
v 4.3984 10.5921 -12.7466
v 4.2156 -39.7354 41.7317
v 2.7122 -30.2555 25.1167
v 1.3298 5.1688 0.6257
v 1.2752 -21.1545 21.9816
v 2.6826 -34.0374 31.8771
v 1.9072 -31.3073 27.8847
v 2.3443 -30.3729 34.7840
v 1.9416 -31.6175 37.8822
v 2.9315 -40.1130 44.3261
v 2.6443 -46.4164 41.9701
v 3.0112 -24.1910 24.7185
v 4.1639 -38.1808 43.5793
v 1.8784 -29.4053 33.0912
v 2.0060 -35.3830 36.3604
v 3.2457 -28.5343 20.5015
v 3.4283 -13.1868 -2.5390
v 4.3627 -8.8902 15.4144
v 2.4001 -26.6908 26.7542
v 2.4826 -42.9598 41.5548
v 4.0127 -42.9359 39.3320
v 1.8758 -2.3132 -47.2922
v 1.7393 -2.1964 -39.0361
v 2.5854 -18.3655 -1.4852
v 2.5554 -1.7625 -41.5263
v 4.7147 -15.5234 -1.7088
v 3.1090 -28.5141 22.8037
v 3.2516 -11.9326 18.2604
v 4.5067 -0.8832 -1.3750
v 3.1247 0.7761 -43.8710
v 4.6306 -7.8080 -0.5428
v 4.6579 -5.8919 13.0381
v 4.4205 -23.8776 22.4733
v 3.5933 7.6254 -12.4239
v 4.9332 0.0624 -18.3435
v 3.9901 -25.0346 2.2166
v 4.3308 -7.0336 -47.9166
v 3.4372 -5.0455 11.2025
v 4.4071 1.2591 -47.6726
v 4.3537 -4.4217 0.8805
v 7.0030 -24.5868 10.7336
v 4.9608 -15.0402 19.8196
v 4.1488 8.3030 -4.0250
v 5.2779 4.1192 -0.9842
v 4.4701 -1.5499 4.6463
v 4.0341 -10.9359 16.3443
v 6.3770 -19.1144 21.9334
v 4.4381 -18.9960 -1.2190
v 3.7890 1.0451 -39.4140
v 4.2012 -26.6955 20.0324
v 5.3938 55.1840 -40.6060
v 5.5792 -22.7681 6.1316
v 6.3902 -26.5435 15.3359
v 4.2389 -5.0020 -41.2574
v 5.4403 -22.1963 1.3673
v 4.1763 -6.8274 -38.9402
v 4.6487 1.3246 -2.5615
v 4.3232 -4.6293 -24.3874
v 6.6145 56.7032 -42.0725
v 6.8681 -7.4363 -31.5980
v 3.1673 -6.2578 -44.4132
v 4.2034 8.4055 -7.1280
v 5.3384 -1.6259 -30.7508
v 6.4009 -11.3950 17.5750
v 5.3333 57.9351 -42.6325
v 4.7261 0.5609 -41.5731
v 4.3611 5.5684 -3.6609
v 4.4418 -27.5304 21.9981
v 6.8247 -6.4875 5.9799
v 4.3528 -3.8544 -31.0459
v 6.0295 -2.1781 -5.9558
v 5.1923 -4.6330 3.6286
v 7.1275 -14.7342 1.3196
v 8.4687 -4.0150 -12.1176
v 5.7127 -9.0419 -20.4206
v 8.0758 1.9054 -38.3886
v 7.0207 -6.8345 2.1287
v 6.1069 -6.4354 -45.0028
v 6.6120 -1.3862 -24.2480
v 7.1997 6.6602 -11.4068
v 6.2761 -11.7764 13.9711
v 11.4224 2.9426 -44.2139
v 7.7574 -11.3722 1.3133
v 5.8079 -8.6356 -24.6510
v 8.0255 -26.2575 19.4683
v 7.4407 2.6604 -4.3845
v 7.5446 0.7667 -18.0726
v 7.4676 -7.2099 9.1153
v 7.0490 -20.3744 1.1213
v 6.6372 -4.7139 5.8607
v 7.3813 -9.0390 -22.2057
v 7.3517 -23.4296 3.2417
v 7.8675 0.8919 -40.3358
v 6.9193 -24.3600 21.0573
v 6.5802 -6.2548 -48.2926
v 8.4554 -16.7479 3.7935
v 7.6937 -7.5938 -39.2399
v 8.9523 -17.6380 19.0780
v 7.1943 -9.1223 8.7045
v 8.8810 -10.9022 8.3821
v 8.8001 -15.6654 2.5696
v 9.0272 -24.7462 18.3954
v 9.0782 -10.7210 -24.4369
v 9.2838 -14.2731 6.9528
v 9.7346 0.5694 -16.4866
v 7.9660 -15.7411 14.2531
v 9.1841 -19.6214 6.2539
v 8.3227 -13.1494 5.6429
v 9.8672 -22.7398 20.3616
v 9.3812 -22.8633 10.3518
v 8.7580 -14.5552 15.7174
v 10.5110 -28.6873 13.9852
v 8.0298 -5.7196 -41.6918
v 12.3837 -0.4441 -21.0624
v 9.4411 -9.9050 -18.8969
v 10.1480 -1.1131 -31.7174
v 11.1575 2.4182 -47.2268
v 10.2484 -17.8197 5.7880
v 12.1790 -2.1408 -22.6479
v 11.3254 -19.5724 13.3930
v 11.2622 -5.0303 -39.5509
v 10.3094 -2.5380 -40.5273
v 9.3661 -27.1464 11.7834
v 10.7046 0.4406 -38.4654
v 9.2942 -8.0225 -46.1236
v 9.8977 -6.7772 -31.8763
v 9.5002 -19.2745 11.9579
v 11.6584 -26.3374 15.7084
v 10.2203 -21.8891 18.4011
v 10.2947 -1.3362 -13.8407
v 14.2046 -5.1640 -48.2707
v 12.3469 -7.6965 -18.0174
v 10.1559 -21.2559 7.9635
v 11.1416 -0.6694 -25.5949
v 11.2203 -25.7985 9.7394
v 11.2674 -18.3327 16.5310
v 11.2802 -29.3124 10.2348
v 15.3397 -9.3072 -48.6034
v 12.2069 -6.6937 -45.5261
v 13.0174 -0.5592 -45.0128
v 11.5551 -3.6669 -32.4679
v 11.6579 -8.9155 -22.1201
v 13.3252 1.5051 -44.8324
v 12.7975 -8.9341 -24.3148
v 13.3821 -27.4218 8.8555
v 17.2364 -3.5846 -48.2982
v 12.9628 -0.9434 -48.5964
v 13.4497 -4.0322 -17.6274
v 12.8366 -23.5477 13.8897
v 12.1526 -23.2893 11.5761
v 14.3213 -2.6454 -24.4882
v 14.1675 -32.8317 13.5755
v 14.6047 -8.1855 -46.4006
v 13.6077 -5.9849 -21.9335
v 14.6255 -6.0595 -24.3091
v 15.6213 -28.0213 13.8745
v 13.9892 -34.1872 12.1921
v 15.4425 2.7950 -48.2935
v 16.2787 0.8767 -45.9865
v 16.0048 -1.0678 -47.5864
v 15.6204 -26.4137 10.6448
v 15.6382 -34.8833 8.3667
v 15.7528 -41.1551 14.7743
v 15.9857 -38.2562 12.1577
v 16.8871 -31.8734 8.7045
v 17.1141 -34.5414 14.4740
v 17.3761 0.8449 -48.2520
v 17.6728 -41.0386 10.4345
v 15.1511 -36.3904 10.4768
v 17.1217 -39.1208 15.4162
v 17.9464 -37.4071 9.4414
v 19.1366 -38.1465 6.6192
v 18.5493 -33.5507 11.3735
v 17.4801 -39.3779 12.9070
v 18.8477 -39.2895 11.8341
f 68 12 105
f 124 68 105
f 44 12 68
f 68 52 44
f 66 68 124
f 558 574 573
f 565 522 558
f 585 594 574
f 26 105 12
f 105 26 163
f 585 574 466
f 124 105 195
f 594 587 574
f 466 574 558
f 522 466 558
f 574 587 573
f 52 68 66
f 4 26 12
f 4 12 1
f 544 585 466
f 522 464 449
f 38 12 44
f 565 552 522
f 163 195 105
f 522 449 466
f 558 580 565
f 52 38 44
f 585 544 570
f 357 276 339
f 594 586 587
f 585 586 594
f 339 241 395
f 54 52 66
f 40 12 38
f 54 38 52
f 552 565 580
f 163 26 117
f 585 570 586
f 522 505 464
f 24 1 12
f 241 339 276
f 357 253 276
f 466 449 457
f 466 509 544
f 1 2 4
f 580 558 566
f 54 40 38
f 357 339 333
f 552 580 566
f 522 552 505
f 54 66 40
f 464 488 449
f 124 40 66
f 395 383 339
f 587 586 567
f 378 395 241
f 509 570 544
f 40 24 12
f 357 333 253
f 452 457 449
f 573 587 567
f 24 5 1
f 586 570 567
f 195 163 117
f 466 457 509
f 333 339 383
f 552 566 540
f 40 124 74
f 117 126 195
f 4 43 26
f 2 23 4
f 505 488 464
f 74 124 96
f 383 395 486
f 117 26 43
f 1 5 2
f 40 74 53
f 488 452 449
f 540 566 558
f 253 296 221
f 126 124 195
f 481 488 505
f 4 23 43
f 567 549 573
f 486 395 492
f 558 573 549
f 364 378 241
f 276 253 241
f 492 395 378
f 24 40 53
f 253 333 303
f 177 241 253
f 570 509 520
f 274 221 296
f 509 457 493
f 493 457 452
f 124 126 96
f 505 552 540
f 486 364 383
f 53 74 96
f 481 452 488
f 378 478 492
f 570 520 567
f 505 540 481
f 303 296 253
f 241 177 212
f 261 383 364
f 24 53 5
f 383 261 333
f 253 221 177
f 478 364 486
f 549 567 520
f 43 126 117
f 364 241 261
f 478 486 492
f 549 540 558
f 493 520 509
f 364 478 378
f 96 126 146
f 261 241 212
f 274 283 196
f 126 43 36
f 43 23 17
f 221 274 177
f 96 42 53
f 274 296 303
f 450 476 452
f 493 452 476
f 17 36 43
f 549 548 540
f 548 524 540
f 96 146 42
f 481 540 483
f 144 126 36
f 146 126 144
f 520 493 503
f 2 17 23
f 452 481 450
f 303 283 274
f 540 524 483
f 503 493 476
f 42 5 53
f 196 283 194
f 261 212 177
f 274 147 177
f 2 5 8
f 483 450 481
f 274 196 147
f 8 17 2
f 13 8 5
f 13 5 42
f 549 520 551
f 551 548 549
f 503 551 520
f 261 177 182
f 194 268 193
f 182 333 261
f 524 548 553
f 182 303 333
f 194 147 196
f 13 11 8
f 239 193 268
f 194 193 120
f 239 268 267
f 194 283 293
f 42 146 79
f 548 551 568
f 303 293 283
f 568 553 548
f 177 147 182
f 267 268 289
f 524 487 483
f 267 271 239
f 239 271 260
f 476 450 490
f 193 239 140
f 146 144 86
f 551 503 543
f 194 120 147
f 8 11 17
f 239 260 91
f 268 194 293
f 120 193 140
f 91 140 239
f 568 551 543
f 303 182 293
f 86 144 36
f 271 267 289
f 178 91 260
f 168 293 182
f 260 271 178
f 182 147 168
f 17 11 22
f 487 450 483
f 553 487 524
f 168 147 120
f 46 42 79
f 268 293 289
f 503 476 490
f 490 543 503
f 178 295 197
f 450 487 497
f 146 86 79
f 140 168 120
f 497 490 450
f 46 13 42
f 293 168 289
f 51 36 17
f 13 19 11
f 178 106 91
f 295 238 197
f 17 22 51
f 295 178 291
f 271 302 178
f 46 19 13
f 78 178 197
f 295 269 238
f 157 168 140
f 271 289 302
f 278 302 289
f 178 78 106
f 157 140 91
f 36 51 86
f 289 168 278
f 157 278 168
f 197 238 87
f 157 91 106
f 295 263 269
f 302 291 178
f 269 299 238
f 263 295 291
f 121 238 299
f 78 197 87
f 152 278 157
f 152 157 106
f 152 302 278
f 121 87 238
f 106 78 152
f 299 269 263
f 582 553 568
f 263 270 299
f 121 299 173
f 302 152 179
f 179 291 302
f 78 116 152
f 86 154 79
f 173 299 270
f 173 159 130
f 506 543 490
f 72 87 121
f 487 485 497
f 87 116 78
f 116 291 179
f 497 485 490
f 116 179 152
f 568 543 578
f 543 506 561
f 86 51 82
f 306 159 173
f 173 270 292
f 291 116 263
f 51 22 41
f 578 582 568
f 553 582 571
f 530 487 553
f 561 578 543
f 490 485 506
f 11 19 6
f 86 82 154
f 121 173 75
f 72 116 87
f 75 72 121
f 51 41 82
f 46 79 172
f 11 16 22
f 154 172 79
f 22 16 41
f 116 270 263
f 292 306 173
f 7 16 11
f 485 487 511
f 130 75 173
f 72 113 116
f 553 571 530
f 530 511 487
f 6 7 11
f 209 270 116
f 113 209 116
f 27 6 19
f 172 39 46
f 306 308 159
f 113 72 75
f 169 159 187
f 19 46 27
f 159 308 287
f 292 270 209
f 561 506 546
f 159 70 130
f 75 130 70
f 113 75 209
f 287 187 159
f 578 561 546
f 39 27 46
f 209 306 292
f 7 10 16
f 511 518 485
f 209 75 125
f 511 530 518
f 70 159 90
f 70 125 75
f 159 169 90
f 571 582 569
f 581 569 582
f 578 581 582
f 546 581 578
f 41 16 15
f 530 571 569
f 485 518 502
f 6 10 7
f 569 518 530
f 506 541 546
f 6 27 28
f 10 15 16
f 154 39 172
f 27 39 28
f 169 187 107
f 485 502 425
f 131 306 209
f 209 125 131
f 15 10 3
f 125 70 90
f 28 10 6
f 59 82 41
f 31 41 15
f 41 31 59
f 131 308 306
f 506 485 462
f 541 581 546
f 154 82 153
f 125 90 131
f 485 425 462
f 569 542 518
f 131 287 308
f 90 169 107
f 28 39 18
f 10 28 18
f 18 3 10
f 31 15 21
f 542 502 518
f 82 59 153
f 462 541 506
f 569 581 559
f 154 50 39
f 88 107 187
f 462 514 541
f 3 9 15
f 541 575 581
f 514 532 541
f 21 15 9
f 559 542 569
f 131 90 107
f 187 326 137
f 137 88 187
f 18 39 50
f 31 63 59
f 575 559 581
f 348 326 409
f 348 137 326
f 326 187 334
f 59 63 153
f 187 287 310
f 154 153 150
f 88 131 107
f 18 14 3
f 14 9 3
f 58 30 137
f 409 386 348
f 409 326 334
f 192 137 348
f 133 131 88
f 150 50 154
f 21 61 31
f 226 287 131
f 33 30 58
f 425 502 424
f 58 137 192
f 541 557 575
f 61 58 192
f 31 61 63
f 50 48 18
f 348 340 192
f 557 541 532
f 133 226 131
f 361 462 425
f 14 18 48
f 33 58 32
f 111 88 137
f 287 226 206
f 424 502 542
f 310 334 187
f 50 150 48
f 348 386 340
f 409 461 386
f 386 462 361
f 61 32 58
f 32 61 21
f 461 514 462
f 462 386 461
f 287 206 310
f 192 340 250
f 137 30 111
f 61 192 63
f 226 133 206
f 424 542 501
f 340 361 250
f 461 532 514
f 361 340 386
f 501 559 575
f 192 250 63
f 32 21 25
f 559 501 542
f 575 557 501
f 428 409 334
f 220 153 63
f 57 111 30
f 30 33 29
f 507 532 461
f 310 206 217
f 220 63 250
f 133 217 206
f 111 62 88
f 391 334 310
f 133 88 62
f 428 461 409
f 391 428 334
f 62 218 133
f 218 217 133
f 32 29 33
f 25 21 20
f 62 111 57
f 391 310 363
f 150 153 220
f 310 217 224
f 217 218 224
f 29 57 30
f 9 20 21
f 507 557 532
f 424 361 425
f 279 250 361
f 14 48 56
f 220 250 279
f 29 32 25
f 150 220 205
f 150 56 48
f 361 424 398
f 557 507 513
f 14 37 9
f 216 224 218
f 310 224 216
f 361 398 279
f 373 391 363
f 428 489 461
f 363 310 301
f 461 489 507
f 470 489 428
f 279 205 220
f 218 123 216
f 428 391 470
f 513 501 557
f 150 98 56
f 301 310 216
f 55 218 62
f 62 57 55
f 218 55 123
f 37 20 9
f 210 216 123
f 391 373 417
f 301 373 363
f 34 29 25
f 301 216 210
f 14 56 37
f 55 57 49
f 57 29 49
f 285 373 301
f 424 317 398
f 56 98 37
f 150 205 98
f 20 34 25
f 501 317 424
f 317 279 398
f 317 205 279
f 489 513 507
f 317 501 498
f 123 237 210
f 501 513 498
f 237 301 210
f 185 237 123
f 417 470 391
f 237 285 301
f 35 29 34
f 35 49 29
f 228 205 317
f 470 494 489
f 228 98 205
f 151 123 55
f 151 185 123
f 285 237 185
f 242 285 185
f 373 285 332
f 34 20 47
f 98 228 60
f 494 513 489
f 47 37 98
f 513 484 498
f 484 317 498
f 47 35 34
f 242 332 285
f 456 382 317
f 20 37 47
f 47 98 60
f 494 484 513
f 470 471 494
f 228 317 382
f 231 280 162
f 45 35 47
f 382 282 228
f 183 280 231
f 242 185 234
f 280 403 328
f 151 234 185
f 231 141 183
f 470 417 431
f 317 484 456
f 373 431 417
f 280 328 128
f 128 162 280
f 280 183 388
f 242 234 332
f 234 330 332
f 45 47 60
f 373 332 330
f 471 484 494
f 444 280 458
f 453 451 280
f 415 280 388
f 484 471 456
f 49 35 64
f 167 141 231
f 431 471 470
f 231 162 167
f 280 415 458
f 186 60 228
f 259 128 328
f 183 228 282
f 451 403 280
f 228 183 186
f 234 245 330
f 475 403 451
f 453 500 451
f 234 151 245
f 167 76 141
f 388 282 415
f 35 45 64
f 388 183 282
f 160 183 141
f 500 475 451
f 444 510 280
f 467 458 415
f 76 167 100
f 444 458 510
f 510 453 280
f 60 64 45
f 76 160 141
f 162 128 92
f 471 431 456
f 64 60 186
f 55 49 135
f 403 381 328
f 282 382 415
f 315 373 330
f 160 119 183
f 382 456 405
f 167 162 73
f 64 135 49
f 456 431 405
f 259 142 128
f 510 500 453
f 167 73 100
f 162 92 73
f 176 259 219
f 142 259 176
f 330 245 257
f 403 475 523
f 413 415 382
f 516 482 403
f 328 327 236
f 405 413 382
f 219 259 328
f 315 330 257
f 475 500 528
f 381 403 463
f 245 151 257
f 328 381 327
f 109 160 76
f 510 458 504
f 328 236 219
f 463 403 482
f 373 411 431
f 523 516 403
f 183 191 186
f 64 186 243
f 458 467 499
f 119 160 109
f 246 257 151
f 528 523 475
f 128 142 108
f 191 243 186
f 183 119 191
f 405 431 384
f 413 405 384
f 482 519 463
f 504 458 499
f 413 467 415
f 315 257 246
f 213 151 55
f 246 151 264
f 135 64 243
f 151 213 264
f 472 499 467
f 411 384 431
f 135 213 55
f 467 413 401
f 352 327 381
f 315 411 373
f 523 545 516
f 315 246 264
f 248 327 352
f 413 384 401
f 528 500 535
f 219 236 199
f 482 516 534
f 135 243 213
f 500 510 527
f 236 327 248
f 519 482 534
f 527 535 500
f 534 516 545
f 264 213 258
f 315 384 411
f 352 381 370
f 496 504 517
f 243 258 213
f 528 535 531
f 467 401 472
f 519 479 463
f 258 315 264
f 499 517 504
f 370 381 463
f 199 236 156
f 109 76 81
f 119 109 118
f 523 528 531
f 343 384 315
f 176 69 142
f 370 463 479
f 343 315 258
f 176 219 158
f 393 499 472
f 248 156 236
f 258 243 288
f 527 510 526
f 235 265 190
f 248 352 370
f 190 83 235
f 219 199 158
f 479 426 370
f 510 504 515
f 517 499 394
f 519 534 560
f 343 258 288
f 200 104 190
f 515 526 510
f 190 77 83
f 199 156 158
f 243 191 288
f 504 496 515
f 104 77 190
f 89 92 128
f 401 384 286
f 472 401 393
f 288 191 323
f 265 200 190
f 100 81 76
f 393 394 499
f 204 215 83
f 118 191 119
f 235 83 215
f 118 109 180
f 235 200 265
f 100 73 80
f 343 286 384
f 148 104 200
f 83 156 204
f 83 102 156
f 343 288 323
f 517 394 421
f 81 180 109
f 77 102 83
f 560 426 519
f 599 589 592
f 323 286 343
f 479 519 426
f 156 248 272
f 401 286 393
f 286 323 191
f 158 69 176
f 128 108 115
f 191 118 208
f 89 128 115
f 515 496 459
f 208 286 191
f 496 517 421
f 533 545 523
f 200 161 148
f 527 508 535
f 180 208 118
f 589 599 598
f 215 204 252
f 426 248 370
f 100 80 136
f 180 201 208
f 272 204 156
f 84 77 104
f 592 600 599
f 71 102 77
f 92 80 73
f 564 592 589
f 200 235 161
f 426 560 537
f 533 523 531
f 180 81 201
f 564 572 592
f 545 554 534
f 531 535 508
f 248 426 355
f 158 156 69
f 104 148 161
f 235 215 114
f 589 598 596
f 102 69 156
f 84 97 77
f 97 71 77
f 592 572 588
f 112 108 142
f 560 534 554
f 81 100 136
f 600 598 599
f 564 562 572
f 114 84 104
f 161 114 104
f 129 80 92
f 562 588 572
f 204 272 290
f 252 171 215
f 92 89 101
f 208 393 286
f 114 161 235
f 290 252 204
f 101 129 92
f 595 596 598
f 122 97 84
f 562 564 550
f 468 426 537
f 201 81 222
f 142 69 112
f 526 515 392
f 248 355 272
f 102 71 85
f 588 600 592
f 421 465 496
f 465 459 496
f 537 562 468
f 564 589 584
f 588 562 577
f 215 171 122
f 595 598 602
f 84 114 122
f 596 584 589
f 97 122 171
f 393 208 201
f 97 85 71
f 562 537 577
f 201 394 393
f 596 595 591
f 554 537 560
f 600 602 598
f 562 550 468
f 122 114 215
f 545 533 554
f 85 69 102
f 232 465 421
f 81 136 222
f 527 526 445
f 526 392 445
f 290 272 355
f 394 201 421
f 89 115 101
f 252 127 171
f 232 222 136
f 595 602 601
f 85 97 127
f 588 577 576
f 600 588 583
f 596 591 584
f 115 108 145
f 101 115 145
f 80 232 136
f 201 222 421
f 67 112 69
f 601 591 595
f 290 143 252
f 547 577 537
f 110 145 108
f 537 554 547
f 97 171 127
f 465 232 244
f 468 420 426
f 112 110 108
f 426 420 355
f 222 232 421
f 69 95 65
f 564 584 579
f 576 583 588
f 459 392 515
f 539 550 564
f 590 584 591
f 127 252 143
f 602 600 593
f 527 445 508
f 600 583 593
f 69 85 99
f 480 468 550
f 244 459 465
f 593 601 602
f 547 576 577
f 533 547 554
f 579 539 564
f 65 67 69
f 244 232 80
f 591 601 590
f 539 480 550
f 355 300 290
f 508 533 531
f 99 95 69
f 110 112 67
f 590 601 597
f 85 127 99
f 601 593 597
f 80 129 244
f 593 583 579
f 579 583 539
f 99 127 143
f 583 555 539
f 244 392 459
f 590 579 584
f 538 547 533
f 380 355 420
f 597 593 579
f 355 380 300
f 583 576 555
f 110 67 103
f 533 508 538
f 480 420 468
f 597 579 590
f 300 143 290
f 576 547 556
f 65 95 99
f 445 473 508
f 491 538 508
f 538 563 547
f 480 539 555
f 110 103 145
f 380 359 300
f 556 555 576
f 94 103 67
f 65 94 67
f 93 65 99
f 473 491 508
f 563 556 547
f 420 422 380
f 143 93 99
f 556 529 555
f 338 244 129
f 555 529 480
f 101 338 129
f 491 525 538
f 338 392 244
f 359 380 422
f 445 392 338
f 563 538 525
f 445 331 473
f 338 331 445
f 103 94 164
f 233 93 143
f 455 491 473
f 473 331 455
f 143 300 233
f 480 477 420
f 101 145 338
f 512 480 529
f 331 338 145
f 556 563 536
f 93 94 65
f 164 207 103
f 103 331 145
f 165 164 94
f 233 300 359
f 331 318 455
f 422 420 477
f 563 525 536
f 318 331 103
f 189 165 94
f 189 93 233
f 525 491 469
f 94 93 189
f 277 207 164
f 512 477 480
f 455 469 491
f 469 455 396
f 318 396 455
f 164 165 249
f 529 556 536
f 207 318 103
f 396 277 469
f 529 536 512
f 422 347 359
f 318 207 344
f 233 359 298
f 525 469 474
f 536 525 521
f 165 189 304
f 298 189 233
f 347 298 359
f 443 422 477
f 277 344 207
f 469 277 336
f 336 164 249
f 512 536 521
f 474 469 336
f 422 443 454
f 443 477 495
f 336 277 164
f 454 347 422
f 318 344 396
f 249 165 336
f 344 277 396
f 525 474 521
f 477 512 460
f 521 460 512
f 358 298 347
f 336 335 474
f 335 336 165
f 495 454 443
f 454 358 347
f 460 474 432
f 358 454 430
f 304 335 165
f 474 335 432
f 345 335 304
f 474 460 521
f 345 304 316
f 189 298 321
f 304 189 316
f 345 432 335
f 298 358 320
f 374 320 358
f 358 430 374
f 477 460 439
f 316 189 321
f 439 495 477
f 432 345 407
f 321 298 305
f 439 454 495
f 439 460 432
f 432 407 439
f 321 360 316
f 362 320 374
f 407 345 397
f 446 430 454
f 341 360 321
f 374 430 362
f 360 368 316
f 305 341 321
f 368 345 316
f 439 446 454
f 439 407 341
f 397 341 407
f 368 360 341
f 298 320 329
f 362 319 320
f 329 305 298
f 345 368 397
f 397 368 341
f 430 446 419
f 329 320 314
f 341 446 439
f 319 314 320
f 305 375 341
f 329 375 305
f 430 434 362
f 375 446 341
f 430 419 434
f 329 369 375
f 362 434 412
f 362 324 319
f 446 375 369
f 314 369 329
f 369 419 446
f 324 362 387
f 314 319 297
f 412 387 362
f 412 406 387
f 297 319 324
f 419 412 434
f 350 324 387
f 324 350 309
f 297 324 325
f 350 387 406
f 351 419 369
f 369 314 351
f 314 297 351
f 406 433 350
f 350 312 309
f 441 412 419
f 441 419 351
f 309 325 324
f 230 281 313
f 365 312 350
f 175 281 230
f 377 281 273
f 377 313 281
f 433 402 350
f 350 402 365
f 273 281 175
f 325 351 297
f 230 313 203
f 406 412 441
f 309 294 325
f 402 346 365
f 309 312 311
f 346 312 365
f 441 433 406
f 294 351 325
f 227 273 175
f 203 175 230
f 294 309 311
f 346 227 312
f 433 441 435
f 346 337 227
f 256 203 313
f 337 346 402
f 441 351 353
f 353 351 294
f 408 337 402
f 435 402 433
f 256 202 203
f 227 337 273
f 377 273 423
f 294 311 353
f 441 353 435
f 402 435 427
f 256 313 322
f 377 400 313
f 311 312 307
f 337 423 273
f 175 149 227
f 367 322 313
f 227 307 312
f 408 423 337
f 408 402 442
f 203 202 166
f 311 371 353
f 435 353 371
f 442 423 408
f 371 427 435
f 202 256 254
f 402 427 436
f 175 203 198
f 377 423 448
f 227 149 174
f 436 442 402
f 198 149 175
f 307 227 284
f 354 371 311
f 371 436 427
f 174 284 227
f 400 367 313
f 448 400 377
f 354 311 307
f 198 203 139
f 202 254 255
f 354 436 371
f 166 139 203
f 255 256 322
f 448 423 442
f 254 256 255
f 349 322 367
f 149 198 139
f 255 322 349
f 307 284 354
f 134 174 149
f 139 166 138
f 442 436 390
f 266 166 202
f 134 149 139
f 356 354 284
f 214 138 166
f 436 354 390
f 367 385 349
f 138 134 139
f 255 266 202
f 442 429 448
f 367 376 385
f 275 284 174
f 367 400 404
f 266 214 166
f 448 404 400
f 440 429 442
f 404 376 367
f 275 356 284
f 390 354 356
f 155 275 174
f 385 376 342
f 214 181 138
f 385 342 349
f 134 138 225
f 223 225 138
f 349 266 255
f 390 440 442
f 229 214 266
f 429 447 448
f 404 448 438
f 132 174 134
f 181 223 138
f 349 342 266
f 225 132 134
f 448 447 438
f 181 214 229
f 275 390 356
f 447 389 438
f 429 389 447
f 225 223 211
f 132 225 211
f 132 155 174
f 389 379 438
f 404 438 416
f 342 376 404
f 240 275 155
f 390 275 366
f 181 229 184
f 366 440 390
f 429 437 389
f 438 379 410
f 262 211 223
f 184 223 181
f 223 184 262
f 266 342 247
f 399 379 389
f 437 399 389
f 438 410 416
f 440 437 429
f 229 266 247
f 416 342 404
f 188 170 132
f 211 188 132
f 414 399 437
f 414 379 399
f 184 188 262
f 275 240 366
f 188 211 262
f 155 132 170
f 440 414 437
f 410 414 416
f 155 170 240
f 247 184 229
f 379 414 410
f 366 418 440
f 416 372 342
f 247 342 372
f 184 170 188
f 418 414 440
f 251 240 170
f 418 372 414
f 416 414 372
f 240 251 366
f 170 184 247
f 418 366 372
f 247 251 170
f 372 366 251
f 251 247 372
